# Blender v2.80 (sub 75) OBJ File: ''
# www.blender.org
mtllib room_window2.mtl
o cube.001
v -0.557412 -0.250000 -0.250000
v -0.557412 0.250000 0.250000
v -0.557412 0.250000 -0.250000
v -0.500000 -0.250000 -0.166667
v -0.500000 -0.250000 0.250000
v -0.557412 -0.250000 0.250000
v -0.500000 0.250000 0.250000
v 0.500000 -0.500000 0.500000
v 0.500000 0.500000 0.500000
v -0.500000 0.500000 0.500000
v -0.500000 -0.500000 0.500000
v 0.500000 0.500000 -0.500000
v 0.500000 -0.500000 -0.500000
v -0.500000 -0.500000 -0.500000
v -0.500000 0.500000 -0.500000
v -0.500000 0.250000 -0.250000
v -0.500000 0.250000 0.166667
v -0.500000 -0.250000 -0.250000
vt 0.849190 0.525703
vt 0.901026 0.473867
vt 0.849190 0.473867
vt 0.857829 0.573219
vt 0.901026 0.573219
vt 0.901026 0.525703
vt 0.948542 0.473867
vt 0.250000 0.333333
vt 0.250000 0.000000
vt 0.000000 0.000000
vt 0.000000 0.333333
vt 0.250000 1.000000
vt 0.250000 0.666667
vt 0.000000 0.666667
vt 0.000000 1.000000
vt 0.750000 0.666667
vt 0.750000 0.333333
vt 0.500000 0.333333
vt 0.500000 0.666667
vt 1.000000 0.333333
vt 0.950000 0.350000
vt 1.000000 0.666667
vt 0.800000 0.650000
vt 0.901026 0.426350
vt 0.892386 0.426350
vt 0.801673 0.473867
vt 0.801673 0.525703
vt 0.849190 0.573219
vt 0.948542 0.525703
vt 0.950000 0.600000
vt 0.800000 0.400000
vt 0.800000 0.350000
vt 0.950000 0.650000
vt 0.849190 0.426350
vn -1.0000 0.0000 0.0000
vn 0.0000 -1.0000 0.0000
vn 0.0000 0.0000 1.0000
vn 0.0000 0.0000 -1.0000
vn 0.0000 1.0000 0.0000
vn 1.0000 0.0000 0.0000
usemtl Default_OBJ.000
s 1
f 1/1/1 2/2/1 3/3/1
f 4/4/2 5/5/2 6/6/2
f 6/6/3 7/7/3 2/2/3
f 8/8/3 9/9/3 10/10/3
f 10/10/3 11/11/3 8/8/3
f 12/12/4 13/13/4 14/14/4
f 14/14/4 15/15/4 12/12/4
f 15/16/5 10/17/5 9/18/5
f 12/19/5 15/16/5 9/18/5
f 12/19/6 9/18/6 8/8/6
f 8/8/6 13/13/6 12/19/6
f 11/20/1 10/17/1 5/21/1
f 15/16/1 14/22/1 16/23/1
f 2/2/5 7/24/5 17/25/5
f 1/1/4 16/26/4 18/27/4
f 1/1/1 6/6/1 2/2/1
f 6/6/2 1/1/2 4/4/2
f 1/1/2 18/28/2 4/4/2
f 6/6/3 5/29/3 7/7/3
f 4/30/1 14/22/1 11/20/1
f 10/17/1 17/31/1 7/32/1
f 5/21/1 4/30/1 11/20/1
f 10/17/1 7/32/1 5/21/1
f 17/31/1 10/17/1 15/16/1
f 14/22/1 4/30/1 18/33/1
f 16/23/1 17/31/1 15/16/1
f 14/22/1 18/33/1 16/23/1
f 17/25/5 16/34/5 3/3/5
f 3/3/5 2/2/5 17/25/5
f 1/1/4 3/3/4 16/26/4
